<svg width="357" height="94" viewBox="0 0 357 94" fill="none" xmlns="http://www.w3.org/2000/svg">
<path d="M296.27 93.38C294.98 93.15 293.68 92.97 292.39 92.69C288.07 91.74 284.14 90.0099 280.97 86.8299C277.65 83.4899 276.01 79.45 275.92 74.73C275.84 70.29 276.88 66.24 279.77 62.79C282.45 59.59 286.02 57.84 289.95 56.73C293.45 55.74 297.04 55.3 300.68 55.29C306.88 55.27 313.07 55.29 319.27 55.29C320.5 55.29 320.49 55.29 320.51 54.03C320.55 51.93 320.44 49.8399 319.88 47.7999C318.47 42.7099 315.09 39.6 310.06 38.32C304.25 36.84 298.49 37.39 292.8 39.09C290.73 39.71 288.79 40.64 286.86 41.6C284.5 42.78 281.93 42.2 280.4 40.23C278.48 37.75 279.2 34.23 281.96 32.65C284.62 31.13 287.44 29.9699 290.38 29.1099C295.45 27.6399 300.63 26.98 305.89 27.13C310.64 27.27 315.31 27.96 319.67 30C326.36 33.13 330.11 38.54 331.65 45.63C332.18 48.07 332.4 50.5299 332.4 53.0199C332.39 64.27 332.4 75.53 332.4 86.78C332.4 90.38 330.1 92.58 326.52 92.72C323.55 92.83 321.56 91.63 320.27 89C319.42 87.25 318.44 87.05 316.81 88.15C313.79 90.18 310.7 92.0499 307.07 92.7999C305.99 93.02 304.9 93.19 303.81 93.39H296.27V93.38ZM309.29 63.93C306.72 63.93 304.14 63.95 301.57 63.93C299.67 63.91 297.8 64.11 295.96 64.53C293.56 65.07 291.33 65.97 289.65 67.88C286.77 71.16 286.58 78.4799 291.99 81.7999C295.99 84.2499 300.4 84.6299 304.91 83.9899C313.67 82.7299 320.48 74.8099 320.5 66.0199C320.5 64.5399 319.93 63.95 318.45 63.94C315.4 63.94 312.35 63.94 309.29 63.94V63.93Z" fill="#F4962D"/>
<path d="M347.64 93.38C345.39 92.68 343.7 91.38 343.09 88.99C342.88 88.18 342.81 87.34 342.8 86.5C342.8 69.48 342.8 52.45 342.8 35.43C342.8 34.63 342.87 33.81 343.05 33.03C343.78 29.95 346.48 28.16 349.75 28.53C352.44 28.83 354.79 31.41 354.79 34.33C354.82 52.07 354.82 69.81 354.79 87.55C354.79 90.08 353.18 92.19 350.78 93.09C350.56 93.17 350.34 93.28 350.13 93.38H347.62H347.64Z" fill="#F4962D"/>
<path d="M356.8 9.87001C356.32 11.46 355.64 12.91 354.38 14.08C352.1 16.2 348.36 16.8 345.32 15.44C342.41 14.14 340.66 11.27 340.8 8.02C341.03 2.56 347.11 -0.909983 352.33 1.41002C354.73 2.48002 356.09 4.36001 356.8 6.81001V9.86V9.87001Z" fill="#F4962D"/>
<path d="M170.43 36.77C172.12 34.57 173.88 32.84 175.96 31.45C179.77 28.89 183.99 27.54 188.52 27.01C193.4 26.45 198.2 26.7599 202.86 28.3599C207.93 30.0999 211.98 33.16 214.76 37.82C214.98 38.19 215.12 38.73 215.66 38.01C220.02 32.14 225.99 28.88 233.04 27.45C238.06 26.43 243.09 26.45 248.08 27.64C257.37 29.85 263.12 35.6999 265.6 44.8599C266.46 48.0499 266.82 51.32 266.83 54.62C266.86 65.07 266.84 75.51 266.84 85.96C266.84 88.34 266 90.32 263.9 91.56C260.06 93.83 254.82 91.43 254.79 86.16C254.76 80.32 254.79 74.49 254.79 68.65C254.79 63.77 254.83 58.89 254.73 54.02C254.67 51.04 253.99 48.15 252.66 45.45C250.77 41.62 247.7 39.19 243.58 38.18C239.08 37.09 234.6 37.25 230.26 38.92C224.62 41.09 221.38 45.41 219.84 51.12C219.2 53.5 218.91 55.92 218.91 58.39C218.92 67.64 218.91 76.89 218.91 86.13C218.91 89.05 217.22 91.39 214.59 92.17C210.75 93.3 206.97 90.49 206.97 86.5C206.97 76.8 207 67.11 206.95 57.41C206.93 54.67 206.8 51.92 206.11 49.22C204.25 41.88 198.97 37.69 191.4 37.54C188.48 37.49 185.6 37.71 182.83 38.71C176.93 40.84 173.52 45.19 171.91 51.1C171.25 53.53 170.97 56.02 170.97 58.55C170.97 67.74 170.97 76.93 170.97 86.11C170.97 89.13 169.29 91.41 166.58 92.17C162.77 93.24 159.03 90.44 159.03 86.49C159.03 68.68 159.03 50.87 159.03 33.07C159.03 29.84 161.5 27.4 164.72 27.4C167.93 27.4 170.41 29.84 170.45 33.05C170.46 34.19 170.45 35.32 170.45 36.75L170.43 36.77Z" fill="#393A3B"/>
<path d="M0.610107 49.51C0.610107 37.3 0.610107 25.09 0.610107 12.88C0.610107 9.13996 3.6001 6.36994 7.2901 6.60994C10.5701 6.81994 13.0701 9.60995 13.0801 13.12C13.0901 21.08 13.1701 29.04 13.0501 37C13.0001 40.46 15.6201 43.45 19.4701 43.43C31.5301 43.38 43.5901 43.38 55.6601 43.43C58.9401 43.4399 61.9901 40.85 61.9401 37.15C61.8201 29.34 61.9001 21.53 61.9101 13.72C61.9101 11.99 62.2001 10.34 63.3401 8.91997C64.8901 6.99997 67.5501 6.14994 69.9701 6.85994C72.4101 7.57994 74.1001 9.61996 74.3801 12.1C74.4701 12.94 74.5001 13.7699 74.5001 14.6099C74.5001 38.1399 74.5001 61.66 74.5001 85.19C74.5001 87.16 74.1701 89 72.7201 90.48C70.8701 92.37 68.6301 92.85 66.2101 92.06C63.7601 91.2599 62.3501 89.46 62.0301 86.85C61.9401 86.13 61.9101 85.42 61.9101 84.7C61.9101 76.65 61.8301 68.5999 61.9501 60.5499C62.0001 57.0799 59.1901 54.24 55.6001 54.26C43.5401 54.33 31.4801 54.32 19.4101 54.26C15.6901 54.24 13.0301 57.2199 13.0701 60.5799C13.1801 69.0199 13.1201 77.4599 13.1001 85.8999C13.1001 88.59 11.9501 90.67 9.47011 91.82C5.33011 93.73 0.640112 90.84 0.630112 86.34C0.610112 74.0699 0.630112 61.8 0.630112 49.53L0.610107 49.51Z" fill="#393A3B"/>
<path d="M146.91 58.84C146.91 67.28 146.91 75.72 146.91 84.16C146.91 85.68 146.72 87.14 146.13 88.54C145.07 91.03 143.14 92.33 140.49 92.43C138.22 92.52 136.24 91.82 134.92 89.8C134.56 89.25 134.21 88.69 133.79 88.18C133.06 87.28 132.31 87.12 131.24 87.57C130.99 87.67 130.75 87.8 130.53 87.95C125.86 91.29 120.64 92.9 114.92 93.09C109.15 93.28 103.59 92.48 98.4202 89.76C92.2002 86.48 88.5802 81.2 86.8402 74.52C86.0802 71.59 85.7302 68.6 85.7302 65.56C85.7402 54.7 85.7302 43.83 85.7302 32.97C85.7302 29.61 87.9302 27.44 91.2902 27.4C92.9102 27.38 94.4602 27.49 95.7502 28.64C97.0602 29.8 97.6802 31.25 97.6802 33C97.6802 43.59 97.6202 54.19 97.7202 64.78C97.7602 69.09 98.7002 73.22 101.43 76.74C103.64 79.6 106.63 81.22 110.11 81.89C115.29 82.89 120.37 82.56 125.15 80.14C130.18 77.59 132.91 73.28 134.19 67.94C134.7 65.81 134.94 63.65 134.94 61.45C134.94 51.96 134.94 42.48 134.94 32.99C134.94 30.23 136.55 27.99 139.11 27.56C142.2 27.05 144.54 27.35 146.2 30.06C146.73 30.93 146.9 31.88 146.9 32.89C146.89 41.54 146.9 50.19 146.9 58.84H146.91Z" fill="#393A3B"/>
</svg>
